<svg xmlns="http://www.w3.org/2000/svg" viewBox="0 0 256 256" role="img" aria-label="JI-SoEX Tools app icon">
  <defs>
    <linearGradient id="tile" x1="38" y1="18" x2="218" y2="238" gradientUnits="userSpaceOnUse">
      <stop offset="0" stop-color="#32a86b"/>
      <stop offset="0.52" stop-color="#197144"/>
      <stop offset="1" stop-color="#0f4f31"/>
    </linearGradient>
    <linearGradient id="shine" x1="50" y1="22" x2="102" y2="134" gradientUnits="userSpaceOnUse">
      <stop offset="0" stop-color="#ffffff" stop-opacity="0.30"/>
      <stop offset="1" stop-color="#ffffff" stop-opacity="0"/>
    </linearGradient>
    <filter id="shadow" x="-20%" y="-20%" width="140%" height="140%">
      <feDropShadow dx="0" dy="10" stdDeviation="10" flood-color="#092f1e" flood-opacity="0.28"/>
    </filter>
  </defs>

  <rect x="20" y="20" width="216" height="216" rx="44" fill="url(#tile)" filter="url(#shadow)"/>
  <path d="M54 40h80c-42 16-70 47-86 93V50c0-5.5 2.5-10 6-10z" fill="url(#shine)"/>
  <path d="M54 188V74l74-30 74 30v114" fill="none" stroke="#f4fff7" stroke-width="13" stroke-linecap="round" stroke-linejoin="round"/>
  <path d="M78 188v-72h100v72" fill="none" stroke="#f4fff7" stroke-width="13" stroke-linecap="round" stroke-linejoin="round"/>
  <path d="M78 116l50-72 50 72" fill="none" stroke="#d7f5e4" stroke-width="10" stroke-linecap="round" stroke-linejoin="round" opacity="0.95"/>
  <path d="M58 177h140" fill="none" stroke="#d7f5e4" stroke-width="10" stroke-linecap="round"/>
  <path d="M65 163c16-58 36-66 55-12 10 29 30 29 58-28" fill="none" stroke="#bff2d3" stroke-width="10" stroke-linecap="round" stroke-linejoin="round"/>
  <path d="M65 163c16-58 36-66 55-12 10 29 30 29 58-28" fill="none" stroke="#0f4f31" stroke-width="4" stroke-linecap="round" stroke-linejoin="round" opacity="0.58"/>
  <circle cx="65" cy="163" r="7" fill="#f4fff7"/>
  <circle cx="120" cy="151" r="7" fill="#f4fff7"/>
  <circle cx="178" cy="123" r="7" fill="#f4fff7"/>
</svg>
